<?xml version="1.0" encoding="UTF-8"?>
<svg id="_레이어_1" data-name="레이어_1" xmlns="http://www.w3.org/2000/svg" viewBox="0 0 600 600">
  <defs>
    <style>
      .cls-1 {
        fill: #000;
      }

      .cls-2 {
        fill: #03c75a;
      }
    </style>
  </defs>
  <path class="cls-1" d="M426.51,374.05l-.18-.48c-4.31-11.59-19.73-38.77-74.66-90.56-16.87-15.91-33.06-29.93-43.67-38.9-2.05-1.74-5.04-4.26-8.02-6.75-53.68,44-114.02,103.4-126.29,136.2l-.18.48c-3.84,9.63-5.79,19.86-5.79,30.41,0,41.7,30.79,75.63,68.64,75.63,15.57,0,30.39-7.23,42.42-17.72l-15.44,37.9h73.35l-15.44-37.9c12.03,10.49,26.86,17.72,42.43,17.72,37.85,0,68.64-33.93,68.64-75.63,0-10.55-1.93-20.73-5.79-30.39Z"/>
  <g>
    <path class="cls-2" d="M524.82,185.34h47.72v-61.01c0-49.14-37.71-89.44-85.76-93.62v82.36c0,24.1-19.61,43.71-43.71,43.71s-43.71-19.61-43.71-43.71V30.33h-198.72v82.75c0,24.1-19.61,43.71-43.71,43.71s-43.71-19.61-43.71-43.71V30.71c-48.05,4.18-85.76,44.48-85.76,93.62v61.01h497.36Z"/>
    <path class="cls-2" d="M156.93,135.1c12.16,0,22.02-9.86,22.02-22.02V22.02c0-12.16-9.86-22.02-22.02-22.02s-22.02,9.86-22.02,22.02v91.06c0,12.16,9.86,22.02,22.02,22.02Z"/>
    <path class="cls-2" d="M443.07,135.1c12.16,0,22.02-9.86,22.02-22.02V22.02c0-12.16-9.86-22.02-22.02-22.02s-22.02,9.86-22.02,22.02v91.06c0,12.16,9.86,22.02,22.02,22.02Z"/>
  </g>
  <path class="cls-1" d="M524.82,185.34h0v320.66c0,25.56-20.72,46.28-46.28,46.28H121.46c-25.56,0-46.28-20.72-46.28-46.28V185.34h0s-47.72,0-47.72,0v320.66c0,51.91,42.08,94,94,94h357.08c51.91,0,94-42.08,94-94V185.34h-47.72Z"/>
</svg>